<svg fill="none" height="24" viewBox="0 0 24 24" width="24" xmlns="http://www.w3.org/2000/svg"><path clip-rule="evenodd" d="m12 4c-4.41828 0-8 3.58172-8 8 0 4.4183 3.58172 8 8 8 4.4183 0 8-3.5817 8-8 0-.5143-.0484-1.0163-.1406-1.5021-.103-.54262.2534-1.06598.7959-1.16898.5426-.103 1.066.25337 1.169.79598.1154.6081.1757 1.235.1757 1.8751 0 5.5228-4.4772 10-10 10-5.52285 0-10-4.4772-10-10 0-5.52285 4.47715-10 10-10 1.5947 0 3.1049.37401 4.445 1.04001.4946.24578.6963.84596.4505 1.34054s-.846.69627-1.3405.45048c-1.0698-.53163-2.276-.83103-3.555-.83103zm9.8637.99603c.2783.47705.1172 1.08937-.3599 1.36765l-.2216.12929c-3.5949 2.09702-6.4832 5.21793-8.296 8.96413-.141.2914-.4142.4964-.7333.5504s-.6446-.0497-.8736-.2785l-4.01346-4.0092c-.39073-.3903-.39107-1.0234-.00075-1.4142.39031-.39071 1.02348-.39105 1.41421-.0007l3.0505 3.0473c1.9955-3.55607 4.9079-6.52372 8.4446-8.58679l.2217-.12929c.477-.27828 1.0893-.11714 1.3676.35991z" fill="rgb(0,0,0)" fill-rule="evenodd"/></svg>