<svg width="64" height="64" viewBox="0 0 64 64" fill="none" xmlns="http://www.w3.org/2000/svg"><path fill-rule="evenodd" clip-rule="evenodd" d="M32 38C35.3137 38 38 35.3137 38 32C38 28.6863 35.3137 26 32 26C28.6863 26 26 28.6863 26 32C26 35.3137 28.6863 38 32 38ZM32 42C37.5228 42 42 37.5228 42 32C42 26.4772 37.5228 22 32 22C26.4772 22 22 26.4772 22 32C22 37.5228 26.4772 42 32 42Z" fill="currentColor"/><path fill-rule="evenodd" clip-rule="evenodd" d="M29.5 8L34.5 8L36 16L39.5 17.5L46 12.5L49.5 16L44.5 22.5L46 26L54 27.5L54 32.5L46 34L44.5 37.5L49.5 44L46 47.5L39.5 42.5L36 44L34.5 52L29.5 52L28 44L24.5 42.5L18 47.5L14.5 44L19.5 37.5L18 34L10 32.5L10 27.5L18 26L19.5 22.5L14.5 16L18 12.5L24.5 17.5L28 16L29.5 8ZM32 38C35.3137 38 38 35.3137 38 32C38 28.6863 35.3137 26 32 26C28.6863 26 26 28.6863 26 32C26 35.3137 28.6863 38 32 38Z" fill="currentColor" fill-opacity="0.2"/></svg>
