<svg id="Icons" enable-background="new 0 0 100 100" height="512" viewBox="0 0 100 100" width="512" xmlns="http://www.w3.org/2000/svg"><path id="Happy" d="m50 98c-26.467 0-48-21.533-48-48s21.533-48 48-48 48 21.533 48 48-21.533 48-48 48zm0-90c-23.159 0-42 18.841-42 42s18.841 42 42 42 42-18.841 42-42-18.841-42-42-42zm26.684 52.342c.737-1.475.141-3.258-1.327-4.006-1.471-.743-3.271-.158-4.03 1.304-.22.422-5.549 10.36-21.327 10.36-15.74 0-21.081-9.889-21.325-10.356-.743-1.474-2.542-2.071-4.017-1.327-1.482.741-2.083 2.543-1.342 4.025.28.558 7.055 13.658 26.684 13.658s26.404-13.1 26.684-13.658zm-11.684-16.342c-3.309 0-6-2.691-6-6s2.691-6 6-6 6 2.691 6 6-2.691 6-6 6zm-30 0c-3.309 0-6-2.691-6-6s2.691-6 6-6 6 2.691 6 6-2.691 6-6 6z"/></svg>