<svg height="512" viewBox="0 0 32 32" width="512" xmlns="http://www.w3.org/2000/svg"><g id="Arrow_Outline" data-name="Arrow Outline"><path d="m20.4553 6.4963v-.0022a1.32 1.32 0 0 0 -.4953-1.0311l-3.5649-2.8517a.6324.6324 0 0 0 -.79 0l-3.5651 2.8517a1.32 1.32 0 0 0 -.4956 1.0311v.0022a1.2118 1.2118 0 0 0 1.8924 1.0027l1.0632-.7155v21.2438a1.5 1.5 0 0 0 3 0v-21.2438l1.0634.7155a1.2116 1.2116 0 0 0 1.8919-1.0027z"/><path d="m28.9778 8.6171a.6323.6323 0 0 0 -.5587-.5588l-4.537-.5041a1.32 1.32 0 0 0 -1.08.3787l-.0015.0015a1.2117 1.2117 0 0 0 .6294 2.0469l1.3625.2664-5.4986 6.7323a1.5 1.5 0 0 0 -.3383.9419l-.0445 10.0986a1.5 1.5 0 0 0 1.4932 1.5068h.0068a1.5 1.5 0 0 0 1.5-1.4931l.042-9.5679 4.8829-5.979.2188 1.1191a1.2117 1.2117 0 0 0 2.0469.6288l.0016-.0016a1.3205 1.3205 0 0 0 .3786-1.0795z"/><path d="m12.7065 16.98-5.4986-6.7323 1.3621-.2664a1.2117 1.2117 0 0 0 .629-2.0469l-.0015-.0015a1.32 1.32 0 0 0 -1.08-.3787l-4.537.5041a.6323.6323 0 0 0 -.5587.5588l-.5041 4.537a1.3205 1.3205 0 0 0 .3786 1.0795l.0016.0016a1.2117 1.2117 0 0 0 2.0469-.6288l.2188-1.1192 4.8834 5.9791.0415 9.5674a1.5 1.5 0 0 0 1.5 1.4936h.0063a1.5 1.5 0 0 0 1.4937-1.5063l-.044-10.0986a1.5 1.5 0 0 0 -.338-.9424z"/></g></svg>