<svg id="Layer_1" enable-background="new 0 0 100 100" viewBox="0 0 100 100" xmlns="http://www.w3.org/2000/svg"><path d="m47.6329041 2.5c-2.1258812.2418673-4.6027336.3666525-7.0164795.828819-5.6556664 1.0799301-10.7109756 3.4847376-14.870369 7.528697-3.9885216 3.8760386-4.1794052 10.099885-.5495567 14.2270327 2.9479027 3.3522511 7.3243484 3.3414669 11.9855766-.0308113.3201942-.2326241.6465416-.4575443.9621124-.696331 3.4789886-2.6405125 7.4659729-3.6742249 11.726963-3.249033 3.5143967.3512478 6.5254173 1.8609924 7.7815437 5.4936237 1.2130241 3.5063076-.4833603 6.1529808-2.9494438 8.3929482-1.2376595 1.1246071-2.6631203 2.0458603-4.0116119 3.0487633-8.1001968 6.0189514-11.617672 15.4856682-9.1269608 24.5687866 1.185318 4.3212585 3.198822 6.5889587 5.84655 6.5858765 2.5892296-.0030746 4.5627098-2.0350723 5.7157059-6.3332253 1.1976318-4.4614487 3.4897614-8.1972961 7.0133934-11.1043282 2.8185997-2.3246994 5.9019699-4.324337 8.7421188-6.6228485 8.8791199-7.1866951 11.037323-18.3048859 5.3985901-28.2029572-5.79113-10.1630508-15.2121123-13.8033847-26.6481322-14.4350125z"/><path d="m49.1199417 76.3681183c-6.542347.010788-10.6955833 4.0331802-10.6817284 10.3463745.013855 6.2407913 4.4595718 10.8069992 10.5016251 10.7854309 6.3406906-.0215683 10.8957024-4.5338593 10.8649139-10.7607803-.029251-6.3378449-4.1963424-10.3818054-10.6848106-10.3710251z"/></svg>